<?xml version="1.0" standalone="no"?>
<!DOCTYPE svg PUBLIC "-//W3C//DTD SVG 20010904//EN"
 "http://www.w3.org/TR/2001/REC-SVG-20010904/DTD/svg10.dtd">
<svg version="1.0" xmlns="http://www.w3.org/2000/svg"
 width="512.000000pt" height="288.000000pt" viewBox="0 0 512.000000 288.000000"
 preserveAspectRatio="xMidYMid meet">

<g transform="translate(0.000000,288.000000) scale(0.100000,-0.100000)"
fill="#000000" stroke="none">
<path d="M1490 2431 c0 -4 35 -14 78 -21 42 -6 93 -19 112 -27 51 -22 59 -23
380 -28 162 -2 331 -7 375 -10 224 -16 341 -28 355 -36 9 -6 -14 -7 -60 -3
-41 4 -264 7 -497 8 -327 1 -413 4 -385 12 36 11 35 11 -20 8 -32 -3 -59 0
-63 6 -4 6 -10 8 -14 5 -5 -2 -42 2 -82 9 -93 18 -309 31 -291 18 9 -6 -10
-12 -60 -16 -63 -6 -119 -17 -227 -42 -20 -4 -22 -7 -10 -15 12 -7 12 -9 -1
-9 -44 0 -277 -137 -326 -191 -10 -12 25 9 78 45 100 68 121 79 97 48 -8 -10
-1 -5 14 11 55 56 177 92 359 104 74 4 99 3 94 -5 -4 -6 -19 -9 -34 -6 -43 9
-250 -22 -315 -46 -46 -17 -66 -32 -95 -70 -31 -41 -42 -49 -70 -49 -37 -1
-49 -12 -113 -104 -40 -58 -41 -58 -65 -42 -14 9 -30 15 -36 13 -17 -6 76 -55
156 -83 62 -21 129 -32 379 -61 31 -3 57 -10 57 -15 0 -5 -12 -6 -27 -4 -16 3
-91 12 -168 20 -165 19 -236 35 -305 70 -27 14 -53 25 -57 24 -4 0 26 -17 68
-37 l76 -37 -127 -1 c-100 -1 -135 -5 -165 -20 -21 -10 -34 -19 -29 -20 5 -2
173 -22 374 -44 580 -65 969 -122 982 -143 4 -7 11 -12 15 -12 4 -1 19 -7 32
-14 23 -13 78 -18 111 -10 12 3 15 -6 13 -51 l-2 -55 17 51 17 50 45 -17 c25
-10 42 -18 37 -18 -4 -1 21 -30 56 -66 56 -57 68 -65 103 -66 21 -1 50 -5 64
-9 18 -6 9 -8 -36 -8 -81 0 -151 -31 -207 -91 -24 -26 -46 -53 -49 -61 -4 -11
-12 -6 -33 18 -15 18 -34 31 -41 28 -7 -3 -14 -1 -16 5 -6 18 -228 67 -748
164 -290 55 -353 61 -440 44 -114 -22 -147 -18 -253 30 -79 35 -103 42 -132
37 -47 -9 -99 -56 -125 -114 -12 -26 -26 -55 -31 -64 -5 -9 -12 -35 -15 -57
-4 -23 -9 -39 -13 -37 -3 2 -6 -38 -7 -90 -1 -54 3 -94 9 -94 5 0 6 -11 3 -25
-4 -15 -2 -25 4 -25 6 0 8 -4 5 -10 -3 -5 7 -36 23 -67 17 -32 35 -83 40 -113
18 -94 50 -166 96 -214 52 -53 51 -53 336 -60 183 -5 434 -29 590 -55 257 -44
783 -148 844 -167 15 -5 18 -3 13 11 -4 9 16 -8 43 -38 88 -97 100 -100 425
-110 615 -19 1214 12 1493 78 116 28 146 41 138 60 -3 8 5 16 22 20 16 4 21 9
14 13 -6 5 9 15 37 25 27 9 68 36 92 59 l43 42 87 2 c67 2 99 7 138 25 28 13
51 27 51 31 0 4 7 4 17 1 11 -5 14 -3 9 6 -5 7 -17 10 -28 8 -16 -4 -17 -3 -7
9 14 17 -2 19 -18 3 -9 -9 -21 -6 -47 11 -20 12 -36 26 -36 31 0 14 12 11 36
-12 l21 -20 47 31 c47 32 62 49 25 30 -27 -15 -31 -10 -20 27 5 16 7 42 4 57
-3 14 -1 26 3 26 5 0 9 43 9 97 l0 96 -17 -74 c-9 -41 -24 -109 -33 -151 -11
-52 -22 -78 -31 -78 -18 0 -18 7 5 98 11 43 20 91 19 107 0 17 2 40 6 53 7 22
6 22 -93 22 l-101 0 0 -37 c0 -77 -3 -80 -90 -87 -164 -15 -485 -34 -492 -29
-5 2 -8 45 -8 94 0 58 -4 88 -10 84 -5 -3 -10 -22 -10 -41 0 -32 -2 -34 -32
-35 -18 -1 -37 -2 -43 -3 -5 -1 -38 -5 -72 -10 -34 -4 -86 -15 -116 -25 -47
-14 -53 -19 -43 -32 6 -9 18 -18 26 -22 12 -4 12 -6 -2 -6 -10 -1 -22 8 -28
19 -25 46 -88 78 -208 105 -182 40 -188 43 -102 43 69 -1 215 17 250 29 8 3
61 5 116 5 56 -1 118 4 138 9 27 8 63 6 137 -6 84 -13 127 -14 273 -5 188 11
252 24 348 69 98 46 101 50 93 118 -8 63 -37 131 -60 140 -8 3 -15 17 -15 32
-1 55 -62 149 -102 155 -8 1 -26 9 -39 17 -59 38 -293 120 -339 119 -8 -1 35
-21 95 -46 61 -24 126 -52 145 -61 19 -10 37 -18 40 -18 13 -2 60 -32 104 -66
l49 -39 -38 0 c-26 0 -54 10 -88 32 -27 17 -61 33 -76 34 -14 2 -58 10 -98 18
-39 9 -89 17 -110 20 -21 2 -38 5 -38 6 0 1 -29 3 -65 6 -36 2 -96 8 -135 13
-38 5 -77 9 -85 9 -55 1 -244 17 -335 28 -27 4 -56 7 -62 7 -7 0 -13 3 -13 7
0 4 -10 5 -22 3 -13 -2 -73 9 -133 26 -61 16 -158 39 -215 51 -58 12 -107 23
-109 26 -2 2 65 5 150 6 174 1 189 2 244 12 22 4 100 11 173 15 73 4 134 10
137 13 3 2 -50 41 -118 85 -172 112 -195 124 -80 39 34 -25 67 -54 73 -66 10
-18 8 -20 -23 -20 -18 0 -61 11 -96 25 -72 30 -185 55 -244 55 -24 0 -51 6
-62 14 -11 7 -36 17 -55 21 -26 6 -31 9 -17 14 13 5 2 15 -47 40 -36 18 -72
31 -79 28 -10 -4 -29 22 -61 79 -26 46 -46 87 -46 91 0 5 22 7 48 6 32 -2 42
0 32 6 -17 11 -181 57 -220 63 -14 2 40 7 120 11 157 8 169 6 369 -69 73 -28
423 -257 553 -363 76 -62 93 -71 128 -71 22 0 40 3 39 8 0 4 -21 21 -47 37
-29 19 -47 37 -47 49 0 13 -12 24 -33 33 -19 8 -31 9 -27 3 3 -5 4 -10 1 -10
-2 0 -67 42 -143 93 -282 191 -504 305 -582 299 -14 -1 -27 1 -30 6 -11 14
-137 63 -177 67 l-39 5 40 -10 c22 -6 44 -16 50 -22 7 -8 6 -9 -4 -3 -8 4 -55
9 -105 11 -50 2 -172 8 -271 13 -99 6 -265 11 -370 12 -254 1 -504 25 -529 50
-12 11 -56 12 -56 0z m-243 -107 c-3 -3 -12 -4 -19 -1 -8 3 -5 6 6 6 11 1 17
-2 13 -5z m1626 -1 c-7 -2 -19 -2 -25 0 -7 3 -2 5 12 5 14 0 19 -2 13 -5z
m-1690 -10 c-7 -2 -19 -2 -25 0 -7 3 -2 5 12 5 14 0 19 -2 13 -5z m-56 -9 c-3
-3 -12 -4 -19 -1 -8 3 -5 6 6 6 11 1 17 -2 13 -5z m490 -20 c84 -22 147 -59
224 -131 80 -76 183 -209 230 -296 34 -63 54 -121 38 -112 -5 4 -9 14 -9 24 0
27 -103 180 -193 288 -74 89 -148 153 -214 187 -45 22 -146 45 -220 48 -35 2
-63 7 -63 12 0 11 139 -2 207 -20z m-237 -10 c0 -4 -13 -49 -30 -101 -16 -51
-30 -102 -30 -112 0 -11 -3 -27 -6 -35 -5 -14 -8 -14 -18 -3 -6 7 -69 26 -141
42 -111 24 -257 66 -173 50 21 -4 31 1 51 26 18 23 40 35 93 50 64 18 172 27
132 11 -17 -7 -16 -8 2 -20 12 -7 20 -8 20 -2 0 5 7 10 15 10 8 0 15 -5 15
-11 0 -5 -4 -7 -10 -4 -6 4 -7 -1 -3 -11 6 -17 19 4 54 94 8 20 29 31 29 16z
m50 -5 c0 -5 -4 -8 -9 -4 -6 3 -9 -5 -8 -17 3 -32 -45 -228 -55 -228 -5 0 -12
10 -17 22 -6 16 1 51 25 120 18 54 35 102 39 108 8 13 25 13 25 -1z m678 -309
c68 -85 104 -135 81 -110 -23 25 -89 104 -148 175 -58 72 -125 153 -150 180
-24 28 -13 19 25 -20 38 -38 125 -140 192 -225z m-307 263 c13 -16 12 -17 -3
-4 -10 7 -18 15 -18 17 0 8 8 3 21 -13z m-206 -42 c-42 -26 -65 -54 -80 -98
-7 -21 -20 -39 -29 -41 -14 -3 -14 2 0 50 29 98 38 108 92 108 l47 0 -30 -19z
m-637 -41 c-7 -11 -17 -20 -22 -20 -5 0 -1 9 9 20 10 11 20 20 22 20 2 0 -2
-9 -9 -20z m450 -65 c-3 -14 0 -29 6 -34 6 -5 84 -22 173 -37 89 -16 160 -30
158 -32 -6 -6 -331 49 -345 58 -10 6 -3 70 7 70 3 0 3 -11 1 -25z m395 -112
c-7 -2 -21 -2 -30 0 -10 3 -4 5 12 5 17 0 24 -2 18 -5z m60 -10 c-7 -2 -21 -2
-30 0 -10 3 -4 5 12 5 17 0 24 -2 18 -5z m60 -10 c-7 -2 -21 -2 -30 0 -10 3
-4 5 12 5 17 0 24 -2 18 -5z m-4 -59 c20 -25 30 -81 14 -71 -8 5 -61 11 -181
23 -40 4 -75 11 -78 16 -18 29 56 55 163 57 55 1 64 -2 82 -25z m-256 -44 c15
-5 63 -12 107 -16 44 -3 80 -11 80 -15 0 -8 -69 -6 -197 7 -45 5 -53 9 -53 26
0 15 4 18 18 13 9 -4 29 -11 45 -15z m-63 -42 c0 -5 -12 -7 -27 -4 -25 5 -272
36 -287 36 -3 0 -6 4 -6 8 0 4 72 -1 160 -12 88 -10 160 -23 160 -28z m1305
-38 c17 -4 -11 -6 -65 -3 l-95 4 210 -55 c265 -69 450 -134 469 -165 8 -12 -7
-8 -184 44 -173 51 -329 87 -545 126 -122 22 -142 27 -85 23 152 -11 446 -71
609 -123 89 -29 101 -25 16 5 -77 28 -436 117 -554 139 l-76 13 135 0 c74 0
149 -4 165 -8z m-942 -17 c-7 -2 -19 -2 -25 0 -7 3 -2 5 12 5 14 0 19 -2 13
-5z m560 0 c-7 -2 -21 -2 -30 0 -10 3 -4 5 12 5 17 0 24 -2 18 -5z m519 -134
c113 -28 295 -88 448 -148 l75 -29 -40 -8 c-78 -16 -160 -9 -330 30 -93 21
-172 42 -175 46 -3 4 -33 18 -68 31 -41 16 -61 28 -57 37 3 8 0 10 -6 6 -8 -4
-9 1 -4 15 4 13 2 21 -5 21 -6 0 -8 5 -4 11 3 6 0 16 -7 21 -19 12 27 4 173
-33z m629 -104 c4 3 31 -7 59 -23 l51 -29 -32 -7 c-35 -7 -134 -6 -106 1 19 5
22 24 6 40 -6 6 -8 17 -3 24 6 10 9 10 12 1 2 -7 8 -10 13 -7z m-3339 -48
c-19 -33 -46 -112 -63 -187 -6 -24 -6 -17 -3 25 6 62 31 138 59 182 25 37 31
19 7 -20z m4236 -14 c-10 -2 -26 -2 -35 0 -10 3 -2 5 17 5 19 0 27 -2 18 -5z
m-713 -38 c28 -24 29 -26 12 -39 -14 -10 -15 -15 -5 -19 7 -3 -23 -6 -67 -7
-44 -1 -111 -4 -149 -5 -51 -2 -76 2 -100 15 -17 10 -49 24 -71 31 l-40 12 30
9 c29 9 196 23 305 26 45 2 60 -3 85 -23z m-802 -12 c-14 -22 -14 -25 -2 -16
13 11 15 9 11 -17 -2 -17 2 -38 9 -48 13 -16 12 -16 -6 -2 -28 20 -55 53 -55
67 0 9 30 31 58 42 1 1 -5 -11 -15 -26z m-542 -12 c24 -16 66 -52 94 -80 33
-34 57 -51 74 -51 24 0 24 0 5 -15 -18 -14 -17 -15 17 -11 20 2 49 -2 63 -9
14 -8 56 -23 93 -35 38 -12 78 -26 91 -31 13 -5 34 -9 48 -9 l25 0 -26 -23
c-23 -19 -28 -34 -34 -97 -5 -41 -9 -62 -10 -46 l-1 29 -25 -23 c-30 -28 -81
-32 -117 -8 -14 9 -48 64 -81 129 -65 131 -133 214 -221 271 -32 21 -55 38
-50 38 6 0 30 -13 55 -29z m487 -16 c1 -25 -1 -45 -3 -45 -13 0 -36 52 -30 70
12 38 32 23 33 -25z m1182 30 c17 20 47 19 59 -2 10 -17 12 -17 25 0 7 9 18
17 23 17 16 0 35 -27 24 -34 -5 -3 -11 0 -14 6 -3 10 -7 10 -19 1 -8 -7 -32
-12 -54 -10 -21 1 -45 -2 -52 -7 -16 -9 -42 10 -42 32 0 13 3 13 19 -2 16 -15
19 -15 31 -1z m-940 -42 l0 -27 28 27 c26 25 52 35 52 21 0 -3 -10 -14 -22
-24 -20 -16 -21 -22 -10 -39 19 -32 15 -34 -17 -12 -27 20 -30 20 -33 4 -3
-14 -7 -12 -20 12 -12 23 -13 34 -4 48 16 25 26 21 26 -10z m1390 8 c0 -4 -35
-18 -77 -30 -43 -13 -91 -32 -108 -44 -25 -18 -49 -22 -170 -27 -118 -5 -148
-4 -192 11 -29 9 -119 23 -200 29 -155 13 -197 20 -153 28 14 2 108 -4 210
-13 252 -24 426 -17 565 24 112 32 125 35 125 22z m-1719 -28 c13 -16 12 -17
-3 -4 -17 13 -22 21 -14 21 2 0 10 -8 17 -17z m536 -33 c4 -44 -5 -51 -26 -19
-10 18 -11 26 0 45 16 30 22 24 26 -26z m-117 23 c0 -8 -5 -13 -12 -11 -18 6
-21 25 -3 25 8 0 15 -7 15 -14z m-2765 -76 c32 -56 32 -65 -6 -96 l-31 -26 19
-33 c15 -28 22 -32 46 -28 33 7 38 -19 5 -27 -29 -8 -34 -3 -63 53 l-25 48 36
31 c34 30 34 31 19 61 -18 35 -23 36 -42 13 -13 -16 -13 -15 -8 14 4 18 2 34
-4 38 -7 4 -11 -9 -11 -38 0 -35 -6 -51 -34 -83 l-34 -39 -7 79 c-6 66 -10 77
-20 63 -7 -9 -16 -17 -20 -17 -5 0 2 11 15 25 13 14 27 25 31 25 5 0 9 -33 11
-72 3 -73 3 -73 20 -48 10 15 18 48 19 77 l2 52 28 -15 c16 -8 40 -34 54 -57z
m2385 64 c0 -20 83 -44 287 -83 157 -29 223 -45 235 -58 16 -17 14 -19 -50
-31 -75 -15 -68 -13 -102 -23 -34 -9 -261 18 -288 35 -12 8 -25 23 -28 34 -4
11 -10 22 -14 25 -13 10 -58 110 -49 110 5 0 9 -4 9 -9z m661 -15 c22 0 45 5
51 12 6 6 15 12 20 12 6 0 -6 -18 -26 -40 -21 -23 -36 -50 -36 -65 0 -29 11
-32 210 -72 117 -24 157 -27 300 -26 285 2 422 27 513 93 15 12 27 16 27 10 0
-16 -69 -55 -147 -83 -96 -35 -398 -56 -531 -38 -141 20 -346 62 -361 74 -12
10 -14 9 -9 -3 23 -58 23 -56 2 -38 -10 9 -37 24 -59 32 -32 13 -43 24 -52 54
-11 33 -9 41 10 69 16 23 25 29 34 21 7 -5 31 -11 54 -12z m-3224 -119 c-2 -7
-9 -2 -16 11 -7 13 -9 32 -5 45 7 20 8 19 16 -11 5 -19 7 -39 5 -45z m798 -18
c50 -16 211 -65 358 -109 291 -87 323 -99 358 -136 18 -19 20 -27 11 -36 -21
-21 -531 88 -899 192 -84 24 -153 47 -153 50 0 12 104 64 140 70 46 9 78 4
185 -31z m-779 -105 c3 -36 4 -67 1 -70 -3 -3 -20 2 -37 11 l-32 17 4 -35 c2
-20 0 -33 -4 -31 -10 7 -11 94 0 94 4 0 16 -7 26 -15 32 -25 39 -18 31 33 -4
30 -16 57 -32 74 -14 14 -22 32 -18 38 15 24 53 -50 61 -116z m3101 120 c-3
-3 -12 -4 -19 -1 -8 3 -5 6 6 6 11 1 17 -2 13 -5z m578 -44 c3 -5 -3 -10 -15
-10 -12 0 -18 5 -15 10 3 6 10 10 15 10 5 0 12 -4 15 -10z m-1774 -113 c2 -48
6 -87 10 -87 4 0 19 14 33 31 22 25 26 41 26 90 0 69 12 75 68 33 37 -29 92
-108 92 -133 0 -9 -20 -27 -45 -40 -25 -13 -45 -28 -45 -33 0 -6 12 -27 28
-49 27 -39 37 -42 85 -23 20 7 29 -46 19 -111 l-8 -50 -17 32 c-19 36 -19 49
1 45 6 -2 12 1 12 7 0 5 3 17 6 26 6 14 1 16 -32 13 -37 -3 -40 -1 -81 59
l-44 62 51 38 c27 20 50 41 50 46 0 7 -27 50 -47 76 -2 3 -15 -6 -29 -19 l-25
-24 7 42 c5 35 4 42 -10 42 -13 0 -16 -11 -16 -51 0 -46 -4 -54 -44 -97 -25
-26 -47 -44 -50 -41 -3 3 -9 44 -12 92 -4 48 -10 87 -14 87 -3 0 -17 -11 -30
-25 -20 -21 -22 -31 -16 -71 6 -45 5 -46 -12 -31 -24 22 -32 21 -32 -1 0 -10
13 -31 29 -46 24 -23 31 -41 41 -107 7 -44 10 -82 7 -86 -4 -3 -29 3 -55 14
l-49 21 3 -47 c3 -36 2 -41 -5 -21 -5 14 -9 45 -10 68 l-1 44 44 -26 c25 -14
49 -26 54 -26 5 0 6 23 0 58 -7 47 -15 63 -44 90 -33 31 -34 35 -24 67 16 49
69 124 99 139 14 8 27 13 28 13 1 -1 3 -41 4 -90z m1052 86 c-7 -2 -19 -2 -25
0 -7 3 -2 5 12 5 14 0 19 -2 13 -5z m-2863 -33 c13 9 13 11 0 21 -13 9 -13 10
0 6 11 -3 14 -14 12 -40 -3 -30 0 -37 14 -37 32 0 6 -12 -29 -14 -32 -1 -35 1
-32 24 2 14 4 36 5 50 2 24 2 24 8 3 5 -17 11 -20 22 -13z m2548 -180 c-2
-104 -6 -145 -15 -148 -10 -3 -13 24 -13 115 0 131 8 199 22 185 5 -5 7 -73 6
-152z m195 133 c-7 -2 -19 -2 -25 0 -7 3 -2 5 12 5 14 0 19 -2 13 -5z m-2623
-45 l-1 -43 -15 28 c-12 22 -12 30 -2 42 18 20 18 20 18 -27z m-29 -102 c5 -6
9 -18 9 -28 0 -34 -16 -18 -35 34 -15 42 -20 48 -26 32 -11 -29 -10 -99 2
-131 9 -24 7 -30 -11 -45 -27 -22 -68 -23 -91 -2 -16 14 -16 18 3 66 10 28 17
57 14 64 -10 27 -42 15 -60 -22 -23 -49 -34 -35 -11 15 16 37 20 40 49 34 17
-3 34 -9 39 -13 4 -3 -1 -35 -12 -70 -16 -49 -17 -66 -8 -72 21 -13 27 -9 42
25 12 26 14 28 15 10 0 -12 5 -25 10 -28 13 -8 13 11 1 53 -7 21 -6 54 1 94 9
49 8 62 -3 70 -11 8 -10 9 4 4 10 -3 17 0 18 7 0 7 9 -10 20 -38 11 -27 25
-54 30 -59z m536 14 c144 -27 394 -72 554 -100 259 -44 336 -60 288 -60 -49 0
-947 159 -1099 194 -66 16 -99 33 -40 22 19 -4 153 -29 297 -56z m2189 36
c134 -33 149 -41 188 -100 42 -64 99 -176 92 -183 -2 -3 -16 20 -30 49 -14 30
-44 82 -65 115 -42 65 -61 76 -155 87 -61 7 -156 37 -156 48 0 12 16 10 126
-16z m-2816 -17 c-7 -11 -14 -18 -17 -15 -3 3 0 12 7 21 18 21 23 19 10 -6z
m-131 2 c10 -7 11 -13 1 -31 -13 -25 -15 -24 -24 13 -7 28 -1 33 23 18z m2828
-43 c-2 -13 -4 -5 -4 17 -1 22 1 32 4 23 2 -10 2 -28 0 -40z m-2247 -39 c30
-5 89 -13 131 -19 74 -10 394 -67 414 -74 6 -2 -28 -4 -75 -5 -159 -1 -601
-34 -621 -46 -6 -4 0 12 14 36 14 24 31 63 38 87 9 33 16 41 28 36 9 -3 41
-10 71 -15z m1415 -11 c0 -17 -5 -33 -10 -35 -13 -4 -14 36 -2 55 12 17 13 16
12 -20z m832 0 c-3 -8 -6 -5 -6 6 -1 11 2 17 5 13 3 -3 4 -12 1 -19z m-887 2
c0 -5 -7 -10 -16 -10 -8 0 -12 5 -9 10 3 6 10 10 16 10 5 0 9 -4 9 -10z m1933
3 c-13 -2 -33 -2 -45 0 -13 2 -3 4 22 4 25 0 35 -2 23 -4z m-1832 -46 c4 -15
3 -29 -1 -32 -12 -7 -60 5 -60 15 0 13 29 32 40 25 5 -3 10 -2 10 4 0 5 -5 12
-10 14 -6 3 -5 4 2 3 6 -1 15 -14 19 -29z m827 -46 c66 -16 146 -49 222 -90
l65 -36 -52 -3 c-34 -2 -63 3 -83 13 -58 30 -184 67 -232 68 l-48 0 30 18 c20
13 31 30 37 56 7 33 8 35 11 12 3 -23 10 -29 50 -38z m-258 4 c0 -17 -2 -17
-10 -5 -5 8 -10 24 -10 35 0 17 2 17 10 5 5 -8 10 -24 10 -35z m-2400 15 c-6
-11 -13 -20 -16 -20 -2 0 0 9 6 20 6 11 13 20 16 20 2 0 0 -9 -6 -20z m1878 3
c-3 -17 16 -71 50 -138 l35 -70 14 35 c10 26 12 28 8 8 -3 -15 -10 -40 -16
-55 -11 -28 -11 -27 -46 47 l-36 75 -15 -59 c-13 -53 -13 -64 2 -111 21 -67
21 -70 -9 -83 -40 -18 -69 -16 -60 6 4 9 10 27 12 40 8 32 23 27 23 -8 0 -16
4 -30 9 -30 18 0 19 15 6 66 -11 43 -11 60 1 110 8 32 14 82 13 109 -1 60 0
65 6 65 3 0 4 -3 3 -7z m-921 -29 c-3 -3 -12 -4 -19 -1 -8 3 -5 6 6 6 11 1 17
-2 13 -5z m1588 -63 c39 -11 93 -27 120 -35 l50 -16 -81 4 c-80 4 -142 26
-199 70 -19 15 -18 15 10 6 17 -5 62 -18 100 -29z m1563 -23 c7 -7 12 -15 12
-18 0 -4 -44 -7 -99 -8 -54 -1 -119 -6 -146 -12 -26 -6 -56 -8 -66 -5 -11 4
-19 3 -19 -2 0 -4 -60 -9 -132 -11 -73 -2 -137 -6 -142 -10 -6 -3 -28 -5 -51
-3 -44 2 -258 -16 -290 -25 -19 -6 -19 -5 -2 12 19 20 95 26 451 39 81 3 145
10 153 16 8 7 51 11 111 10 66 0 105 4 122 13 32 18 82 20 98 4z m-2476 -50
c-12 -20 -13 -31 -5 -39 7 -7 16 -1 32 24 21 34 21 35 69 25 26 -6 50 -13 55
-17 4 -4 -4 -40 -18 -81 -14 -40 -25 -77 -25 -81 0 -4 12 -12 28 -17 21 -8 23
-11 7 -11 -11 -1 -30 6 -42 14 l-22 15 30 72 c16 39 27 73 25 75 -2 2 -18 8
-35 13 -31 9 -33 7 -61 -37 l-30 -46 -19 44 c-11 24 -23 56 -26 71 -7 26 -6
27 23 16 31 -12 31 -12 14 -40z m1491 -15 c-7 -2 -19 -2 -25 0 -7 3 -2 5 12 5
14 0 19 -2 13 -5z m305 -85 l21 -23 -167 9 c-178 11 -181 12 -57 25 147 15
179 14 203 -11z"/>
<path d="M4200 1390 c0 -5 5 -10 10 -10 6 0 10 5 10 10 0 6 -4 10 -10 10 -5 0
-10 -4 -10 -10z"/>
<path d="M2528 2393 c6 -2 18 -2 25 0 6 3 1 5 -13 5 -14 0 -19 -2 -12 -5z"/>
<path d="M2668 2383 c12 -2 30 -2 40 0 9 3 -1 5 -23 4 -22 0 -30 -2 -17 -4z"/>
<path d="M1020 2291 c0 -5 9 -7 20 -4 11 3 20 7 20 9 0 2 -9 4 -20 4 -11 0
-20 -4 -20 -9z"/>
<path d="M645 2109 l-100 -101 100 82 c129 106 121 98 109 110 -6 6 -44 -25
-109 -91z"/>
<path d="M440 1879 c0 -5 -10 -9 -21 -9 -27 0 -99 -21 -100 -29 0 -3 -2 -25
-4 -48 -3 -37 -1 -43 16 -43 11 0 30 5 42 11 24 13 117 100 117 110 0 4 -11 9
-25 11 -14 3 -25 1 -25 -3z"/>
<path d="M3645 1788 c-22 -4 -71 -8 -110 -9 -38 -1 -61 -4 -51 -6 30 -8 247 8
241 17 -6 10 -21 9 -80 -2z"/>
<path d="M590 1755 c-7 -8 -16 -13 -20 -10 -8 5 -50 -28 -50 -39 0 -3 9 -6 20
-6 11 0 20 -4 20 -8 0 -4 16 -6 35 -4 26 3 35 0 35 -11 0 -25 26 -27 87 -6 45
15 59 24 60 40 1 15 -1 18 -10 10 -8 -6 -18 -6 -27 -1 -12 8 -12 10 4 10 41 0
4 13 -49 16 -31 2 -65 9 -75 14 -13 7 -21 5 -30 -5z m119 -35 c12 -7 6 -9 -24
-10 -52 0 -86 10 -79 22 7 11 78 3 103 -12z"/>
<path d="M1301 1683 c13 -16 12 -17 -3 -4 -23 17 -70 7 -62 -14 4 -8 1 -15 -6
-15 -7 0 2 -16 21 -35 19 -19 42 -35 52 -35 21 0 79 28 89 44 14 20 9 36 -9
29 -10 -3 -15 -2 -10 2 13 15 -25 45 -56 45 -27 0 -28 -2 -16 -17z m59 -42
c21 -8 22 -10 5 -10 -54 -2 -123 12 -119 24 5 13 65 6 114 -14z"/>
<path d="M4670 1445 c0 -8 2 -15 4 -15 2 0 6 7 10 15 3 8 1 15 -4 15 -6 0 -10
-7 -10 -15z"/>
<path d="M4665 1410 c-3 -5 -1 -10 4 -10 6 0 11 5 11 10 0 6 -2 10 -4 10 -3 0
-8 -4 -11 -10z"/>
<path d="M4771 1146 c-18 -19 -30 -39 -26 -45 3 -6 11 -9 16 -6 5 3 6 -2 3
-12 -5 -17 -5 -17 9 0 21 25 30 21 25 -13 -3 -18 -1 -27 4 -22 5 5 8 37 6 71
l-3 62 -34 -35z"/>
<path d="M4226 974 c-3 -9 -6 -25 -6 -37 0 -18 -2 -19 -10 -7 -5 8 -7 22 -5
30 3 11 -2 16 -16 17 -16 2 -18 -1 -9 -12 8 -10 8 -19 0 -34 -7 -14 -7 -21 0
-21 5 0 10 6 10 13 0 8 3 8 8 2 9 -14 50 -17 58 -4 3 6 12 5 22 -3 13 -11 15
-10 9 5 -7 18 7 24 18 7 3 -5 11 -10 16 -10 6 0 7 5 4 10 -8 14 8 13 22 -1 17
-17 33 -1 33 33 0 29 -1 30 -17 16 -27 -23 -47 -33 -39 -20 9 15 1 15 -26 1
-15 -8 -19 -8 -14 0 4 6 3 11 -3 11 -5 0 -13 -9 -16 -20 -9 -28 -37 -26 -33 3
2 12 9 21 16 20 6 -2 12 2 12 7 0 16 -27 11 -34 -6z m144 -23 c0 -6 -4 -13
-10 -16 -5 -3 -10 1 -10 9 0 9 5 16 10 16 6 0 10 -4 10 -9z"/>
</g>
</svg>
